<svg width="398" height="125" viewBox="0 0 398 125" fill="none" xmlns="http://www.w3.org/2000/svg"><path d="M67.115 117H23.532C8.659 117.029.015 108.621 0 93.91V27.94c0-.059 16.068 24.448 67.115 24.448C85.247 52.373 100 62.866 100 83.821S85.261 116.985 67.115 117z" fill="#87B6F6"></path><path d="M52.632 0H26.867C12.09-.03.015 11.485 0 26.194v64.989c0 .059 1.912-28.317 52.632-28.317 17.544 0 33.303-13.97 33.333-31.433C85.98 13.97 70.175 0 52.632 0zM122.05 67.737L122 3h31.348c6.452 0 11.293 1.597 14.524 4.79s4.846 7.263 4.846 12.21a16.602 16.602 0 01-2.055 8.361 14.063 14.063 0 01-5.899 5.601v.196a16.336 16.336 0 018.127 5.985 16.796 16.796 0 012.885 9.84 19.958 19.958 0 01-1.212 7.08 14.942 14.942 0 01-3.67 5.594 17.116 17.116 0 01-6.231 3.717 25.671 25.671 0 01-8.654 1.34l-33.959.023zm16.291-49.911v10.6h12.303c2.149 0 3.678-.512 4.586-1.536a5.392 5.392 0 001.356-3.717 5.952 5.952 0 00-1.211-3.804c-.803-1.029-2.38-1.543-4.731-1.543h-12.303zm0 23.455v11.594h14.315c2.351 0 3.995-.565 4.933-1.688a6.063 6.063 0 001.442-4.058c.023-1.526-.543-3.001-1.579-4.116-1.046-1.152-2.64-1.732-4.789-1.725l-14.322-.007zm77.026-22.506h15.144v25.361a30.503 30.503 0 01-1.753 10.79 20.34 20.34 0 01-4.937 7.722 20.223 20.223 0 01-7.812 4.755 30.538 30.538 0 01-10.096 1.594 31.403 31.403 0 01-10.097-1.529 20.263 20.263 0 01-7.759-4.644 20.89 20.89 0 01-4.998-7.768 30.63 30.63 0 01-1.774-10.87v-25.36h15.144v25.36c0 3.9.88 6.696 2.625 8.413a10.428 10.428 0 006.851 2.57c2.517 0 4.95-.913 6.851-2.57 1.741-1.72 2.611-4.523 2.611-8.412V18.775zm47.79 14.492a3.862 3.862 0 00-1.716-2.623 6.417 6.417 0 00-3.606-.935c-1.957 0-3.337.396-4.139 1.188a4.024 4.024 0 00-1.205 2.97c0 1.125.664 1.914 1.969 2.378 1.594.53 3.23.924 4.889 1.181 1.947.324 4.065.686 6.354 1.087a22.281 22.281 0 016.353 2.072 13.314 13.314 0 014.889 4.254c1.313 1.845 1.969 4.384 1.969 7.616a14.403 14.403 0 01-1.507 6.586 15.066 15.066 0 01-4.284 5.196 20.735 20.735 0 01-6.699 3.42 29.268 29.268 0 01-8.769 1.246 29.836 29.836 0 01-8.719-1.181 20.247 20.247 0 01-6.649-3.362 15.463 15.463 0 01-4.291-5.072 14.648 14.648 0 01-1.615-6.522h14.892c.072 2.575 2.122 3.86 6.151 3.855 2.423 0 4.046-.362 4.889-1.094a3.815 3.815 0 001.262-3.065c0-1.123-.656-1.913-1.968-2.377a30.32 30.32 0 00-4.897-1.181l-6.346-1.087a22.33 22.33 0 01-6.375-2.043 13.459 13.459 0 01-4.897-4.254c-1.312-1.85-1.966-4.389-1.961-7.616a14.506 14.506 0 011.442-6.52 15.99 15.99 0 014.111-5.21 18.909 18.909 0 016.396-3.472 26.952 26.952 0 018.416-1.239c2.838-.04 5.665.375 8.373 1.232a20.028 20.028 0 016.353 3.362 15.346 15.346 0 014.089 5.073c.963 1.91 1.5 4.01 1.572 6.151l-14.726-.014zm55.636-14.587h15.144v25.362a30.48 30.48 0 01-1.752 10.79 20.352 20.352 0 01-4.937 7.722 20.226 20.226 0 01-7.813 4.755 30.534 30.534 0 01-10.096 1.594 31.397 31.397 0 01-10.096-1.529 20.354 20.354 0 01-7.738-4.623 20.88 20.88 0 01-4.968-7.804 30.631 30.631 0 01-1.774-10.869V18.717h15.144v25.361c0 3.898.879 6.695 2.625 8.413a10.447 10.447 0 006.85 2.562c2.516 0 4.948-.91 6.851-2.562 1.738-1.718 2.618-4.522 2.611-8.42l-.051-25.39zm57.057-.043h15.144v25.361a30.328 30.328 0 01-1.759 10.783 20.34 20.34 0 01-4.935 7.727 20.21 20.21 0 01-7.815 4.758 30.32 30.32 0 01-10.096 1.586 31.586 31.586 0 01-10.096-1.521 20.372 20.372 0 01-7.738-4.66 20.874 20.874 0 01-4.997-7.767 30.56 30.56 0 01-1.767-10.87v-25.36h15.144v25.36c0 3.894.872 6.696 2.618 8.406a10.424 10.424 0 006.85 2.57c2.517 0 4.95-.913 6.851-2.57 1.745-1.72 2.616-4.524 2.611-8.413l-.015-25.39z" fill="#fff"></path><path d="M138.614 113.824c-.615 0-1.004-.486-1.004-1.198v-7.505c0-3.365-2.915-5.597-7.222-5.597-4.437 0-7.481 2.2-7.578 5.5l3.983.258c.033-1.811 1.425-3.073 3.465-3.073 1.944 0 3.271 1.067 3.271 2.685v1.1c-7.643 1.585-11.529 2.168-11.529 6.503 0 2.75 2.17 4.562 5.376 4.562 2.591 0 5.052-1.165 6.251-3.041l.064.388c.227 1.585 1.458 2.653 3.012 2.653.972 0 2.073-.194 2.785-.518v-2.847c-.291.097-.615.13-.874.13zm-9.845.388c-1.62 0-2.688-.874-2.688-2.136 0-2.361 3.076-2.782 7.448-3.752v1.844c0 2.167-1.846 4.044-4.76 4.044zM162.664 117.059c5.636 0 9.878-3.656 10.623-9.091l-4.275-.583c-.615 3.656-3.174 6.083-6.348 6.083-4.048 0-6.768-3.689-6.768-9.189s2.72-9.188 6.768-9.188c3.174 0 5.733 2.427 6.348 5.985l4.275-.485c-.745-5.467-4.987-9.091-10.623-9.091-6.833 0-11.367 5.112-11.367 12.779 0 7.668 4.534 12.78 11.367 12.78zM187.866 99.523c-2.526 0-4.858 1.262-5.862 3.203h-.065V91.823h-4.275v24.912h4.275v-9.317c0-2.718 1.587-4.497 3.919-4.497 2.105 0 3.498 1.488 3.498 3.688v10.126h4.275v-10.773c0-3.883-2.3-6.439-5.765-6.439zM215.239 108.453c0-5.371-3.433-8.93-8.582-8.93-5.214 0-8.68 3.495-8.68 8.768 0 5.241 3.466 8.768 8.68 8.768 4.339 0 7.708-2.362 8.485-5.856l-4.048-.485c-.551 1.973-2.3 3.267-4.47 3.267-2.655 0-4.242-1.941-4.469-4.95h13.084v-.582zm-8.582-5.985c2.267 0 3.918 1.714 4.339 4.4h-8.776c.453-2.686 2.105-4.4 4.437-4.4zM229.963 113.5h-5.571c-1.295 0-2.17-.582-2.17-1.456 0-.744.486-1.326 1.264-1.65 1.133.453 2.461.68 3.951.68 4.663 0 7.772-2.33 7.772-5.824 0-1.876-.939-3.429-2.591-4.432.648-.841 1.846-1.36 3.433-1.36v-3.493c-3.044 0-5.279 1.52-5.926 3.882-.875-.226-1.814-.323-2.85-.323-4.567 0-7.643 2.264-7.643 5.726 0 1.65.68 3.041 1.91 4.044v.065c-1.684.809-2.688 2.103-2.688 3.526 0 1.391.778 2.427 2.105 3.106v.065c-1.748.873-2.785 2.2-2.785 3.688 0 2.847 3.595 4.756 8.971 4.756 5.668 0 9.457-2.426 9.457-6.115 0-2.944-2.656-4.885-6.639-4.885zm-2.526-11.388c2.202 0 3.659 1.294 3.659 3.17 0 1.942-1.457 3.203-3.659 3.203-2.203 0-3.692-1.261-3.692-3.203 0-1.876 1.489-3.17 3.692-3.17zm-.292 19.476c-3.012 0-5.052-1.003-5.052-2.523 0-1.391 1.069-2.265 2.688-2.265h4.955c1.587 0 2.688.776 2.688 1.909 0 1.715-2.105 2.879-5.279 2.879zM250.426 113.5h-5.57c-1.295 0-2.17-.582-2.17-1.456 0-.744.486-1.326 1.263-1.65 1.134.453 2.462.68 3.951.68 4.664 0 7.773-2.33 7.773-5.824 0-1.876-.939-3.429-2.591-4.432.648-.841 1.846-1.36 3.433-1.36v-3.493c-3.044 0-5.279 1.52-5.927 3.882-.874-.226-1.813-.323-2.85-.323-4.566 0-7.643 2.264-7.643 5.726 0 1.65.68 3.041 1.911 4.044v.065c-1.684.809-2.688 2.103-2.688 3.526 0 1.391.777 2.427 2.105 3.106v.065c-1.749.873-2.785 2.2-2.785 3.688 0 2.847 3.595 4.756 8.971 4.756 5.667 0 9.456-2.426 9.456-6.115 0-2.944-2.655-4.885-6.639-4.885zm-2.526-11.388c2.203 0 3.66 1.294 3.66 3.17 0 1.942-1.457 3.203-3.66 3.203-2.202 0-3.692-1.261-3.692-3.203 0-1.876 1.49-3.17 3.692-3.17zm-.291 19.476c-3.012 0-5.052-1.003-5.052-2.523 0-1.391 1.068-2.265 2.688-2.265h4.955c1.587 0 2.688.776 2.688 1.909 0 1.715-2.105 2.879-5.279 2.879zM275.929 117.059c4.631 0 7.708-2.168 7.708-5.468 0-3.753-3.692-4.562-6.704-5.079-2.202-.388-4.146-.777-4.146-2.265 0-1.229 1.263-2.038 3.142-2.038 1.878 0 3.174 1.132 3.271 2.879l4.016-.291c-.195-3.171-3.077-5.273-7.287-5.273-4.34 0-7.222 2.005-7.222 5.079 0 3.656 3.465 4.4 6.445 4.885 2.299.356 4.404.777 4.404 2.556 0 1.391-1.457 2.297-3.627 2.297s-3.66-1.197-3.757-3.073l-3.983.356c.194 3.267 3.271 5.435 7.74 5.435zM304.337 108.453c0-5.371-3.433-8.93-8.582-8.93-5.214 0-8.68 3.495-8.68 8.768 0 5.241 3.466 8.768 8.68 8.768 4.34 0 7.708-2.362 8.485-5.856l-4.048-.485c-.551 1.973-2.3 3.267-4.47 3.267-2.655 0-4.242-1.941-4.469-4.95h13.084v-.582zm-8.582-5.985c2.267 0 3.919 1.714 4.34 4.4h-8.777c.453-2.686 2.105-4.4 4.437-4.4zM318.607 99.523c-2.364 0-4.501 1.521-5.376 3.818h-.064v-3.494h-4.275v16.888h4.275v-7.894c0-3.332 1.846-5.532 4.598-5.532.842 0 1.879.259 2.527.679l1.004-3.914c-.745-.324-1.846-.55-2.689-.55zM336.556 99.847l-4.598 12.974h-.065l-4.599-12.974h-4.469l6.542 16.888h5.02l6.509-16.888h-4.34zM346.644 96.741c1.49 0 2.461-.938 2.461-2.33 0-1.39-.971-2.329-2.461-2.329-1.49 0-2.494.939-2.494 2.33 0 1.39 1.004 2.33 2.494 2.33zm-2.105 19.994h4.275V99.847h-4.275v16.888zM362.145 117.059c4.404 0 7.74-2.491 8.355-6.244l-4.21-.453c-.486 1.973-2.105 3.3-4.145 3.3-2.624 0-4.34-2.168-4.34-5.371 0-3.235 1.716-5.37 4.34-5.37 1.943 0 3.562 1.294 4.08 3.203l4.178-.292c-.648-3.817-3.983-6.308-8.258-6.308-5.247 0-8.712 3.494-8.712 8.767 0 5.274 3.465 8.768 8.712 8.768zM391 108.453c0-5.371-3.433-8.93-8.582-8.93-5.214 0-8.68 3.495-8.68 8.768 0 5.241 3.466 8.768 8.68 8.768 4.339 0 7.708-2.362 8.485-5.856l-4.048-.485c-.551 1.973-2.3 3.267-4.47 3.267-2.655 0-4.242-1.941-4.469-4.95H391v-.582zm-8.582-5.985c2.267 0 3.918 1.714 4.339 4.4h-8.776c.453-2.686 2.105-4.4 4.437-4.4z" fill="#B8D4FA"></path></svg>